<?xml version="1.0" standalone="no"?>
<!DOCTYPE svg PUBLIC "-//W3C//DTD SVG 20010904//EN"
 "http://www.w3.org/TR/2001/REC-SVG-20010904/DTD/svg10.dtd">
<svg version="1.0" xmlns="http://www.w3.org/2000/svg"
 width="700.000000pt" height="700.000000pt" viewBox="0 0 700.000000 700.000000"
 preserveAspectRatio="xMidYMid meet">
<metadata>
Created by potrace 1.11, written by Peter Selinger 2001-2013
</metadata>
<g transform="translate(0.000000,700.000000) scale(0.100000,-0.100000)"
fill="#000000" stroke="none">
<path d="M6605 6103 c-40 -10 -212 -84 -300 -129 -282 -144 -559 -292 -717
-381 -43 -23 -80 -43 -82 -43 -3 0 -27 -13 -53 -28 -26 -16 -102 -57 -168 -92
-66 -34 -133 -70 -150 -80 -116 -67 -256 -138 -815 -412 -292 -143 -385 -184
-525 -230 -388 -127 -424 -136 -584 -136 -103 0 -130 4 -222 32 -217 66 -316
148 -482 401 -141 215 -216 284 -322 301 -22 3 -42 7 -45 9 -3 2 -12 0 -20 -5
-24 -15 -14 -312 15 -460 3 -14 7 -45 10 -70 3 -25 7 -56 10 -70 3 -14 7 -43
10 -65 3 -22 13 -78 21 -125 9 -47 18 -95 20 -107 11 -65 31 -159 54 -263 12
-52 23 -102 25 -111 12 -59 89 -338 130 -474 24 -77 45 -150 46 -163 4 -22
-18 -35 -251 -153 -366 -187 -568 -292 -622 -325 -605 -368 -936 -581 -1013
-648 -356 -314 -513 -598 -507 -917 1 -41 8 -94 16 -117 37 -105 173 -259 264
-299 191 -84 581 -65 827 42 17 7 59 24 95 38 113 44 322 129 390 157 36 15
126 54 200 85 146 62 146 62 390 172 284 129 776 377 988 499 52 30 96 54 98
54 2 0 40 22 84 50 44 27 82 50 85 50 6 0 156 96 285 183 92 61 406 291 420
306 3 4 52 44 110 91 99 80 267 219 336 278 152 131 343 303 449 403 39 36
102 96 140 132 296 278 468 450 607 607 31 36 68 79 83 95 60 68 299 370 397
500 238 318 350 490 418 645 26 58 57 126 69 153 90 199 103 244 108 367 3 87
1 111 -14 140 -43 83 -198 140 -308 113z"/>
</g>
</svg>
